<?xml version="1.0" encoding="utf-8"?>
<!-- Generator: Adobe Illustrator 21.1.0, SVG Export Plug-In . SVG Version: 6.00 Build 0)  -->
<svg version="1.1" id="Capa_1" xmlns="http://www.w3.org/2000/svg" xmlns:xlink="http://www.w3.org/1999/xlink" x="0px" y="0px"
	 viewBox="0 0 60 83.8" style="enable-background:new 0 0 60 83.8;" xml:space="preserve">
<g>
	<path d="M46.5,54.8c-4.1,0-7.4,3.1-7.9,7H27.5v-6.1c1-0.3,1.9-0.9,2.5-1.9L42.9,32c0.8-1.3,0.8-2.8,0-4.1s-2.1-2.1-3.5-2.1h-2.3
		c-0.6-1.2-1.8-2-3.1-2c-1.6,0-5.5,1.2-5.5,3.5s3.9,3.5,5.5,3.5c1.8,0,3.2-1.3,3.4-3h2c0.8,0,1.4,0.4,1.8,1c0.4,0.7,0.4,1.4,0,2.1
		L28.3,52.8c-0.4,0.6-1,1-1.8,1s-1.4-0.4-1.8-1L11.4,31c-0.4-0.6-0.4-1.4,0-2.1c0.4-0.7,1-1,1.8-1h2.3c0.2,1.7,1.7,3,3.4,3
		c1.6,0,5.5-1.2,5.5-3.5s-3.9-3.5-5.5-3.5c-1.4,0-2.6,0.8-3.1,2h-2.6c-1.5,0-2.8,0.8-3.5,2.1S9,30.7,9.7,32L23,53.8
		c0.6,1,1.5,1.6,2.5,1.9v6.1h-9c-6.1,0-11,4.9-11,11c0,6.1,4.9,11,11,11s11-4.9,11-11v-9h11.1c0.5,3.9,3.9,7,7.9,7c4.4,0,8-3.6,8-8
		S50.9,54.8,46.5,54.8z M34,28.8c-1.2,0-3.4-1-3.5-1.5c0.1-0.5,2.3-1.5,3.5-1.5c0.8,0,1.5,0.7,1.5,1.5C35.5,28.1,34.8,28.8,34,28.8z
		 M19,25.8c1.2,0,3.4,1,3.5,1.5c-0.1,0.5-2.3,1.5-3.5,1.5c-0.8,0-1.5-0.7-1.5-1.5C17.5,26.5,18.2,25.8,19,25.8z M25.5,72.8
		c0,5-4,9-9,9s-9-4-9-9c0-5,4-9,9-9h9V72.8z M46.5,68.8c-3.3,0-6-2.7-6-6c0-3.3,2.7-6,6-6s6,2.7,6,6C52.5,66.1,49.8,68.8,46.5,68.8z
		"/>
	<path d="M46.5,58.8c-2.2,0-4,1.8-4,4c0,2.2,1.8,4,4,4s4-1.8,4-4C50.5,60.6,48.7,58.8,46.5,58.8z M46.5,64.8c-1.1,0-2-0.9-2-2
		s0.9-2,2-2s2,0.9,2,2S47.6,64.8,46.5,64.8z"/>
</g>
</svg>
