<svg xmlns="http://www.w3.org/2000/svg" xmlns:xlink="http://www.w3.org/1999/xlink" viewBox="0 0 436.2 436.21"><defs><style>.cls-1{fill:none;}.cls-2{clip-path:url(#clip-path);}.cls-3{fill:url(#Nouvelle_nuance_de_dégradé_1);}</style><clipPath id="clip-path"><path class="cls-1" d="M218.22,103.26a42.11,42.11,0,0,0-37.6,61L246.3,278.07l-.16.09a30.39,30.39,0,0,1,2.71,12.63,30.7,30.7,0,0,1-61.4,0c0-.12,0-.24,0-.36h0V261.9h0V248.78H174.27l0,0H157.59l0,0H145.35a30.64,30.64,0,0,1,.07-61.27h19.44L158.25,176H144.77a42.1,42.1,0,0,0,.65,84.19H176v27.85h.09c-.06.9-.09,1.8-.09,2.71a42.16,42.16,0,1,0,80.06-18.49l0,0L191.32,160.09l0,0a30.64,30.64,0,1,1,57.51-14.71q0,.37,0,.74l0,1.19v27l0,0v13.21H262l0,0h29.51l.75,0a30.63,30.63,0,0,1-1.26,61.23H272l6.61,11.45h12.18a42.1,42.1,0,0,0,1.91-84.15v0H260.31V146.37h0q0-.51,0-1A42.1,42.1,0,0,0,218.22,103.26Z"/></clipPath><linearGradient id="Nouvelle_nuance_de_dégradé_1" x1="-2825.98" y1="-19.27" x2="-2825.41" y2="-19.27" gradientTransform="matrix(0, -743.41, -743.41, 0, -14105.85, -2100387.93)" gradientUnits="userSpaceOnUse"><stop offset="0" stop-color="#fbc130"/><stop offset="1" stop-color="#e62564"/></linearGradient></defs><title>Fichier 2</title><g id="Calque_2" data-name="Calque 2"><g id="Calque_1-2" data-name="Calque 1"><g id="isotype"><g class="cls-2"><rect class="cls-3" x="59.85" y="59.87" width="316.51" height="316.46" transform="translate(-82.51 287.19) rotate(-57.94)"/></g></g></g></g></svg>